<?xml version="1.0" encoding="UTF-8"?>
<svg id="_图层_1" data-name="图层 1" xmlns="http://www.w3.org/2000/svg" viewBox="0 0 31.38 31.38">
  <defs>
    <style>
      .cls-1 {
        fill: #adad73;
      }
    </style>
  </defs>
  <path class="cls-1" d="m15.69,0c8.67,0,15.69,7.02,15.69,15.69s-7.02,15.69-15.69,15.69S0,24.36,0,15.69,7.02,0,15.69,0Zm0,8.63c-.65,0-1.18.53-1.18,1.18v4.71h-4.71c-.65,0-1.18.53-1.18,1.18s.53,1.18,1.18,1.18h4.71v4.71c0,.65.53,1.18,1.18,1.18s1.18-.53,1.18-1.18v-4.71h4.71c.65,0,1.18-.53,1.18-1.18s-.53-1.18-1.18-1.18h-4.71v-4.71c0-.65-.53-1.18-1.18-1.18Z"/>
</svg>