<?xml version="1.0" encoding="UTF-8"?>
<svg id="_图层_1" data-name="图层 1" xmlns="http://www.w3.org/2000/svg" viewBox="0 0 31.39 31.39">
  <defs>
    <style>
      .cls-1 {
        fill: #adad73;
      }

      .cls-2 {
        fill: #efefe8;
      }
    </style>
  </defs>
  <path class="cls-1" d="m0,15.7c0,8.67,7.03,15.7,15.7,15.7s15.7-7.03,15.7-15.7h0C31.39,7.03,24.37,0,15.7,0,7.03,0,0,7.03,0,15.7h0Z"/>
  <path class="cls-2" d="m15.7,10.31v-3.59l-4.49,4.49,4.49,4.49v-3.59c2.98,0,5.38,2.41,5.38,5.38s-2.41,5.38-5.38,5.38-5.38-2.41-5.38-5.38h-1.79c0,3.97,3.21,7.18,7.18,7.18s7.18-3.21,7.18-7.18c0-3.97-3.22-7.18-7.18-7.18Z"/>
</svg>