<?xml version="1.0" encoding="UTF-8"?>
<svg id="_图层_1" data-name="图层 1" xmlns="http://www.w3.org/2000/svg" viewBox="0 0 29.33 29.33">
  <defs>
    <style>
      .cls-1 {
        fill: #adad73;
      }
    </style>
  </defs>
  <path class="cls-1" d="m23.33,29.33H6c-3.31,0-6-2.69-6-6V6C0,2.69,2.69,0,6,0h17.33c3.31,0,6,2.69,6,6v17.33c0,3.31-2.69,6-6,6ZM14.66,8.24c-.59,0-1.07.48-1.07,1.07v4.28h-4.28c-.59,0-1.07.48-1.07,1.07s.48,1.07,1.07,1.07h4.28v4.28c0,.59.48,1.07,1.07,1.07s1.07-.48,1.07-1.07v-4.28h4.28c.59,0,1.07-.48,1.07-1.07s-.48-1.07-1.07-1.07h-4.28v-4.28c0-.59-.48-1.07-1.07-1.07Z"/>
</svg>