<?xml version="1.0" encoding="utf-8"?>
<!-- Generator: Adobe Illustrator 27.2.0, SVG Export Plug-In . SVG Version: 6.00 Build 0)  -->
<svg version="1.1" id="图层_1" xmlns="http://www.w3.org/2000/svg" xmlns:xlink="http://www.w3.org/1999/xlink" x="0px" y="0px"
	 viewBox="0 0 29.4 35.4" style="enable-background:new 0 0 29.4 35.4;" xml:space="preserve">
<style type="text/css">
	.st0{fill:#D8BB2E;stroke:#D8BB2E;stroke-miterlimit:10;}
	.st1{fill:#FFFFFF;}
</style>
<g>
	<path class="st0" d="M26.3,28.9h-23c-1.4,0-2.5-1.1-2.5-2.5v-23c0-1.4,1.1-2.5,2.5-2.5h23c1.4,0,2.5,1.1,2.5,2.5v23
		C28.8,27.7,27.7,28.9,26.3,28.9z"/>
	<polygon class="st0" points="15.3,34.1 17.8,29.7 12.8,29.7 	"/>
</g>
<path class="st1" d="M24.2,15.5c0-0.1-0.1-0.2-0.1-0.4c0,0,0,0,0,0c0-0.1-0.1-0.2-0.1-0.3c-0.1-0.3-0.4-0.6-0.6-0.9
	c0,0-0.1-0.1-0.1-0.1L23,13.5l-0.1-0.1l-0.1-0.1c0,0-0.1-0.1-0.2-0.1c0,0-0.1-0.1-0.1-0.1c-0.1,0-0.2-0.1-0.3-0.2c0,0,0,0-0.1,0
	c-0.1-0.1-0.2-0.1-0.4-0.2c0,0,0,0-0.1,0c-0.1,0-0.2-0.1-0.3-0.1c0,0-0.1,0-0.1,0c-0.1,0-0.2,0-0.3-0.1c0,0-0.1,0-0.1,0
	c-0.1,0-0.2,0-0.3-0.1c0,0-0.1,0-0.1,0c-0.1,0-0.2,0-0.3,0h-0.1c-1-2.4-3.3-4-6-4C9.9,7.8,7,10.7,7,14.3c0,0.2,0,0.5,0,0.7
	c-1.5,0.6-2.5,2-2.5,3.7c0,2.2,1.8,4,4,4H19c3,0,5.5-2.4,5.5-5.5C24.5,16.6,24.4,16,24.2,15.5L24.2,15.5z M19,20.8H8.5
	c-1.1,0-2-0.9-2-2c0-1,0.8-1.9,1.8-2l1.2-0.1l-0.3-1.1C9.1,15.1,9,14.7,9,14.3c0-2.5,2-4.5,4.5-4.5c1.6,0,3.1,0.9,3.9,2.2
	c-1,0.3-2,0.9-2.6,1.8c-0.5,0.6,0,1.6,0.8,1.6c0.3,0,0.5-0.1,0.7-0.3c0.6-0.8,1.6-1.3,2.7-1.3c0.1,0,0.3,0,0.4,0h0.1
	c0.1,0,0.2,0,0.3,0c0,0,0.1,0,0.1,0c0.1,0,0.2,0,0.3,0.1h0c0.1,0,0.2,0.1,0.3,0.2c0,0,0,0,0.1,0c0.1,0,0.2,0.1,0.2,0.2l0,0
	c0.2,0.1,0.4,0.3,0.6,0.6c0.1,0.1,0.1,0.2,0.2,0.3c0.3,0.5,0.5,1.1,0.5,1.8C22.5,19.2,21,20.8,19,20.8L19,20.8z"/>
</svg>
