<?xml version="1.0" encoding="utf-8"?>
<!-- Generator: Adobe Illustrator 27.2.0, SVG Export Plug-In . SVG Version: 6.00 Build 0)  -->
<svg version="1.1" id="图层_1" xmlns="http://www.w3.org/2000/svg" xmlns:xlink="http://www.w3.org/1999/xlink" x="0px" y="0px"
	 viewBox="0 0 29.4 35.4" style="enable-background:new 0 0 29.4 35.4;" xml:space="preserve">
<style type="text/css">
	.st0{fill:#A1C16B;stroke:#A1C16B;stroke-miterlimit:10;}
	.st1{fill:#FFFFFF;}
</style>
<g>
	<path class="st0" d="M26.27,28.98H3.2c-1.41,0-2.55-1.14-2.55-2.55V3.35c0-1.41,1.14-2.55,2.55-2.55h23.08
		c1.41,0,2.55,1.14,2.55,2.55v23.08C28.82,27.84,27.68,28.98,26.27,28.98z"/>
	<polygon class="st0" points="15.23,34.22 17.75,29.85 12.7,29.85 	"/>
</g>
<path class="st1" d="M6.35,18.52c0,2.41,1.98,4.36,4.43,4.36c2.44,0,4.43-1.95,4.43-4.36S10.78,9.8,10.78,9.8S6.35,16.11,6.35,18.52
	z M17.42,12.92c1.92,0,3.48-1.49,3.48-3.33s-3.48-6.64-3.48-6.64s-3.48,4.82-3.48,6.64C13.94,11.43,15.49,12.92,17.42,12.92z
	 M19.63,17.28c0,0-2.53,3.61-2.53,4.99c0,1.37,1.14,2.49,2.53,2.49c1.4,0,2.53-1.11,2.53-2.49C22.16,20.88,19.63,17.28,19.63,17.28z
	"/>
</svg>
