<?xml version="1.0" encoding="utf-8"?>
<!-- Generator: Adobe Illustrator 27.2.0, SVG Export Plug-In . SVG Version: 6.00 Build 0)  -->
<svg version="1.1" id="图层_1" xmlns="http://www.w3.org/2000/svg" xmlns:xlink="http://www.w3.org/1999/xlink" x="0px" y="0px"
	 viewBox="0 0 29.4 35.4" style="enable-background:new 0 0 29.4 35.4;" xml:space="preserve">
<style type="text/css">
	.st0{fill:#7FAFB5;stroke:#7FAFB5;stroke-miterlimit:10;}
	.st1{fill:#FFFFFF;}
</style>
<g>
	<path class="st0" d="M26.14,28.68H3.2c-1.41,0-2.55-1.14-2.55-2.55V3.18c0-1.41,1.14-2.55,2.55-2.55h22.95
		c1.41,0,2.55,1.14,2.55,2.55v22.95C28.69,27.54,27.55,28.68,26.14,28.68z"/>
	<polygon class="st0" points="15.16,33.9 17.67,29.54 12.65,29.54 	"/>
</g>
<path class="st1" d="M14.67,5.58c0.53,0,0.95,0.43,0.95,0.95v0.92l0.62-0.33c0.47-0.25,1.04-0.07,1.29,0.4
	c0.24,0.47,0.07,1.04-0.4,1.29l-1.51,0.8v1.81c0.68,0.17,1.29,0.53,1.77,1.02l1.57-0.91L18.9,9.82c-0.02-0.53,0.39-0.97,0.92-0.99
	c0.53-0.02,0.97,0.39,0.99,0.92l0.03,0.7L21.62,10c0.46-0.26,1.04-0.11,1.3,0.35c0.26,0.46,0.11,1.04-0.35,1.3l-0.79,0.46l0.6,0.37
	c0.45,0.28,0.58,0.87,0.3,1.31c-0.28,0.44-0.87,0.58-1.31,0.3l-1.45-0.91l-1.57,0.9c0.09,0.33,0.14,0.67,0.14,1.02
	c0,0.35-0.05,0.7-0.14,1.02l1.57,0.91l1.45-0.91c0.44-0.28,1.03-0.14,1.31,0.3c0.28,0.45,0.14,1.03-0.3,1.31l-0.6,0.37l0.79,0.46
	c0.46,0.26,0.61,0.85,0.35,1.3c-0.26,0.46-0.85,0.61-1.3,0.35l-0.79-0.46l-0.03,0.7c-0.02,0.53-0.46,0.94-0.99,0.92
	c-0.53-0.02-0.94-0.46-0.92-0.99l0.06-1.71l-1.57-0.91c-0.48,0.49-1.08,0.85-1.77,1.02v1.81l1.51,0.8c0.47,0.25,0.64,0.82,0.4,1.29
	c-0.25,0.47-0.82,0.64-1.29,0.4l-0.62-0.33v0.92c0,0.53-0.43,0.95-0.95,0.95s-0.95-0.43-0.95-0.95v-0.92L13.1,23.1
	c-0.47,0.25-1.04,0.07-1.29-0.4c-0.25-0.47-0.07-1.04,0.4-1.29l1.51-0.8v-1.81c-0.68-0.17-1.29-0.53-1.77-1.02l-1.57,0.91l0.06,1.71
	c0.02,0.53-0.39,0.97-0.92,0.99C9.01,21.41,8.56,21,8.55,20.47l-0.03-0.7l-0.79,0.46c-0.46,0.26-1.04,0.11-1.3-0.35
	c-0.26-0.46-0.11-1.04,0.35-1.3l0.79-0.46l-0.6-0.37c-0.45-0.28-0.58-0.87-0.3-1.31c0.28-0.44,0.87-0.58,1.31-0.3l1.45,0.91
	L11,16.13c-0.09-0.33-0.14-0.67-0.14-1.02s0.05-0.7,0.14-1.02l-1.57-0.91l-1.45,0.91c-0.45,0.28-1.03,0.14-1.31-0.3
	c-0.28-0.45-0.14-1.03,0.3-1.31l0.6-0.37l-0.79-0.46c-0.46-0.26-0.62-0.85-0.36-1.3C6.68,9.89,7.26,9.73,7.72,10l0.79,0.46l0.03-0.7
	C8.56,9.22,9,8.81,9.52,8.83c0.53,0.02,0.94,0.46,0.92,0.99l-0.06,1.71l1.57,0.91c0.48-0.49,1.08-0.85,1.77-1.02V9.6l-1.51-0.8
	c-0.47-0.25-0.64-0.82-0.4-1.29c0.25-0.47,0.82-0.64,1.29-0.4l0.62,0.33V6.53C13.72,6.01,14.14,5.58,14.67,5.58z M14.67,17.02
	c1.05,0,1.91-0.85,1.91-1.91s-0.85-1.91-1.91-1.91s-1.91,0.85-1.91,1.91S13.62,17.02,14.67,17.02z"/>
</svg>
