<?xml version="1.0" encoding="utf-8"?>
<!-- Generator: Adobe Illustrator 27.2.0, SVG Export Plug-In . SVG Version: 6.00 Build 0)  -->
<svg version="1.1" id="图层_1" xmlns="http://www.w3.org/2000/svg" xmlns:xlink="http://www.w3.org/1999/xlink" x="0px" y="0px"
	 viewBox="0 0 29.4 35.4" style="enable-background:new 0 0 29.4 35.4;" xml:space="preserve">
<style type="text/css">
	.st0{fill:#FFB206;stroke:#FFB206;stroke-width:2;stroke-miterlimit:10;}
	.st1{fill:#FFFFFF;stroke:#FFFFFF;stroke-linecap:round;stroke-linejoin:round;stroke-miterlimit:10;}
</style>
<g>
	<path class="st0" d="M25.77,28.36H3.63c-1.41,0-2.55-1.14-2.55-2.55V3.68c0-1.41,1.14-2.55,2.55-2.55h22.14
		c1.41,0,2.55,1.14,2.55,2.55v22.14C28.32,27.22,27.17,28.36,25.77,28.36z"/>
	<polygon class="st0" points="14.7,33.43 17.14,29.2 12.26,29.2 	"/>
</g>
<g>
	<path class="st1" d="M8.97,14.87c0-3.14,2.55-5.69,5.69-5.69s5.69,2.55,5.69,5.69s-2.55,5.69-5.69,5.69S8.97,18.01,8.97,14.87z
		 M14.66,10.29c-2.53,0-4.58,2.05-4.58,4.58s2.05,4.58,4.58,4.58c2.53,0,4.58-2.05,4.58-4.58C19.24,12.34,17.19,10.29,14.66,10.29z
		 M22.63,7.89L20.82,9.7l-0.78-0.78l1.81-1.81L22.63,7.89L22.63,7.89z M9.28,21.03l-1.81,1.81l-0.78-0.79l1.81-1.81L9.28,21.03
		L9.28,21.03z M15.21,22.53v2.14H14.1v-2.13L15.21,22.53L15.21,22.53z M22.05,14.31h3.16v1.11h-3.16V14.31z M20.82,20.24l1.81,1.81
		l-0.79,0.78l-1.81-1.81L20.82,20.24L20.82,20.24z M4.19,14.31h3.16v1.11H4.19V14.31z M7.92,6.9l1.81,1.81L8.95,9.49L7.14,7.68
		L7.92,6.9L7.92,6.9z M15.31,4.17v3.16H14.2V4.17H15.31z"/>
</g>
</svg>
